<?xml version="1.0" encoding="utf-8"?>
<!-- Generator: Adobe Illustrator 23.1.0, SVG Export Plug-In . SVG Version: 6.00 Build 0)  -->
<svg version="1.1" id="Calque_1" xmlns="http://www.w3.org/2000/svg" xmlns:xlink="http://www.w3.org/1999/xlink" x="0px" y="0px"
	 viewBox="0 0 200 50" style="enable-background:new 0 0 200 50;" xml:space="preserve">
<style type="text/css">
	.st0{fill:#FFFFFF;}
	.st1{fill-rule:evenodd;clip-rule:evenodd;fill:#FFFFFF;}
</style>
<g>
	<g>
		<g>
			<polygon class="st0" points="114.2,7.3 114.2,14.4 103,14.4 103,44.4 94.7,44.4 94.7,14.4 83.5,14.4 83.5,7.3 			"/>
		</g>
		<g>
			<polygon class="st0" points="12.3,7.4 20.7,7.4 20.7,37.3 37.6,37.3 37.6,44.4 12.3,44.4 			"/>
		</g>
		<g>
			<rect x="42.4" y="17.6" class="st1" width="8.4" height="26.8"/>
		</g>
		<g>
			<path class="st0" d="M55.8,17.6h8.4v3.9l0.1,0.1c0.9-1.5,2.1-2.7,3.5-3.5c1.5-0.8,3.1-1.3,4.8-1.3c9.4,0,11.9,6.2,11.9,9.1v18.4
				h-8.3V28.2c0-2.1-0.5-3.6-1.3-4.6c-0.8-1-2.2-1.5-3.9-1.5c-1.9,0-3.5,0.7-4.7,2c-1.2,1.3-1.8,3.7-1.8,5.7v14.6h-8.7L55.8,17.6
				L55.8,17.6z"/>
		</g>
		<path class="st0" d="M145,25.9c0-3.4-1.1-6.2-3.2-8.6c-2.2-2.4-4.8-3.6-8-3.6c-3.1,0-5.8,1.2-7.9,3.6c-2.2,2.4-3.2,5.2-3.2,8.6
			s1.1,6.2,3.2,8.6c2.2,2.4,4.8,3.5,7.9,3.5c3.1,0,5.8-1.2,8-3.5C143.9,32.1,145,29.3,145,25.9 M147.9,39.7
			c-3.8,3.7-8.5,5.6-14.1,5.6c-5.6,0-10.3-1.9-14.1-5.6c-3.8-3.7-5.7-8.3-5.7-13.9c0-5.5,1.9-10.2,5.7-13.9
			c3.8-3.7,8.5-5.6,14.1-5.6c5.6,0,10.3,1.9,14.1,5.6c3.8,3.7,5.7,8.3,5.7,13.9C153.6,31.4,151.7,36,147.9,39.7"/>
		<path class="st0" d="M51.1,9.9c0,2.5-2,4.5-4.5,4.5c-2.5,0-4.5-2-4.5-4.5s2-4.5,4.5-4.5C49.1,5.4,51.1,7.4,51.1,9.9"/>
	</g>
	<g>
		<g>
			<path class="st0" d="M154,43c0-0.4,0.1-0.8,0.4-1.1c0.3-0.3,0.7-0.5,1.2-0.5c0.5,0,0.9,0.2,1.2,0.5c0.3,0.3,0.4,0.7,0.4,1.1
				c0,0.4-0.1,0.8-0.4,1.1c-0.3,0.3-0.7,0.4-1.2,0.4c-0.5,0-0.9-0.1-1.2-0.4C154.1,43.8,154,43.5,154,43z"/>
		</g>
		<g>
			<path class="st0" d="M176.2,44.4c-0.2-0.6-0.4-1.6-0.4-2.8c-0.8,1-1.8,1.8-3,2.4c-1.2,0.6-2.5,0.8-3.9,0.8c-2,0-3.5-0.5-4.7-1.6
				c-1.2-1.1-1.8-2.5-1.8-4.1c0-2,0.8-3.5,2.5-4.7c1.6-1.2,3.9-1.7,6.9-1.7h4.1v-2.3c0-1.5-0.4-2.6-1.3-3.4
				c-0.9-0.8-2.2-1.3-3.9-1.3c-1.6,0-2.9,0.4-3.9,1.2c-1,0.8-1.5,1.8-1.5,2.9l-2.3,0c0-1.6,0.8-3,2.3-4.2c1.5-1.2,3.4-1.8,5.5-1.8
				c2.3,0,4.1,0.6,5.4,1.7c1.3,1.1,2,2.7,2,4.7v9.6c0,2,0.2,3.4,0.6,4.4v0.2H176.2L176.2,44.4z M169.2,42.8c1.5,0,2.8-0.4,4-1.1
				c1.2-0.7,2-1.7,2.6-2.9v-4.5h-4c-2.2,0-4,0.4-5.3,1.2c-1.3,0.8-1.9,1.9-1.9,3.3c0,1.1,0.4,2.1,1.3,2.8
				C166.7,42.4,167.8,42.8,169.2,42.8z"/>
		</g>
		<g>
			<path class="st0" d="M186.5,44.4h-2.3V24h2.3V44.4z M183.9,18.2c0-0.4,0.1-0.8,0.4-1.1c0.3-0.3,0.7-0.4,1.1-0.4
				c0.5,0,0.9,0.1,1.1,0.4c0.3,0.3,0.4,0.7,0.4,1.1s-0.1,0.8-0.4,1.1c-0.3,0.3-0.7,0.4-1.1,0.4c-0.5,0-0.9-0.1-1.1-0.4
				C184,18.9,183.9,18.6,183.9,18.2z"/>
		</g>
	</g>
</g>
</svg>
