<?xml version="1.0" encoding="utf-8"?>
<!-- Generator: Adobe Illustrator 23.0.2, SVG Export Plug-In . SVG Version: 6.00 Build 0)  -->
<svg version="1.1" id="Calque_1" xmlns="http://www.w3.org/2000/svg" xmlns:xlink="http://www.w3.org/1999/xlink" x="0px" y="0px"
	 viewBox="0 0 240 240" style="enable-background:new 0 0 240 240;" xml:space="preserve">
<style type="text/css">
	.st0{opacity:0.9;}
	.st1{fill:#C51843;}
</style>
<g class="st0">
	<g>
		<g>
			<path class="st1" d="M149,104.2c-1.2,0-2.2,1-2.2,2.2v14c0,14.8-12,26.8-26.8,26.8s-26.8-12-26.8-26.8v-14c0-1.2-1-2.2-2.2-2.2
				c-1.2,0-2.2,1-2.2,2.2v14c0,16.5,12.8,30,29,31.2v11.6h-11.6c-1.2,0-2.2,1-2.2,2.2s1,2.2,2.2,2.2h27.6c1.2,0,2.2-1,2.2-2.2
				s-1-2.2-2.2-2.2h-11.6v-11.6c16.2-1.1,29-14.7,29-31.2v-14C151.3,105.2,150.3,104.2,149,104.2z"/>
		</g>
	</g>
	<g>
		<g>
			<path class="st1" d="M121.5,72.4h-3c-10.2,0-18.5,8.3-18.5,18.5v30.9c0,10.2,8.3,18.5,18.5,18.5h3c10.2,0,18.5-8.3,18.5-18.5
				V90.9C140,80.7,131.7,72.4,121.5,72.4z M135.5,96.7h-8.1c-1.2,0-2.2,1-2.2,2.2c0,1.2,1,2.2,2.2,2.2h8.1v6.2h-8.1
				c-1.2,0-2.2,1-2.2,2.2s1,2.2,2.2,2.2h8.1v6.2h-8.1c-1.2,0-2.2,1-2.2,2.2s1,2.2,2.2,2.2h8.1c-0.4,7.4-6.5,13.3-14,13.3h-3
				c-7.5,0-13.6-5.9-14-13.3h8.1c1.2,0,2.2-1,2.2-2.2c0-1.2-1-2.2-2.2-2.2h-8.1v-6.2h8.1c1.2,0,2.2-1,2.2-2.2c0-1.2-1-2.2-2.2-2.2
				h-8.1v-6.2h8.1c1.2,0,2.2-1,2.2-2.2s-1-2.2-2.2-2.2h-8.1v-5.8c0-5.6,3.3-10.4,8-12.7v6.3c0,1.2,1,2.2,2.2,2.2
				c1.2,0,2.2-1,2.2-2.2V77c0.5-0.1,5.7-0.1,6.2,0v7.6c0,1.2,1,2.2,2.2,2.2c1.2,0,2.2-1,2.2-2.2v-6.3c4.7,2.3,8,7.1,8,12.7V96.7z"/>
		</g>
	</g>
</g>
</svg>
