<?xml version="1.0" encoding="utf-8"?>
<!-- Generator: Adobe Illustrator 23.0.2, SVG Export Plug-In . SVG Version: 6.00 Build 0)  -->
<svg version="1.1" id="Calque_1" xmlns="http://www.w3.org/2000/svg" xmlns:xlink="http://www.w3.org/1999/xlink" x="0px" y="0px"
	 viewBox="0 0 500 500" style="enable-background:new 0 0 500 500;" xml:space="preserve">
<style type="text/css">
	.st0{fill:url(#SVGID_1_);}
	.st1{fill:url(#SVGID_2_);}
	.st2{fill:url(#SVGID_3_);}
	.st3{fill:url(#SVGID_4_);}
	.st4{fill:url(#SVGID_5_);}
	.st5{fill:url(#SVGID_6_);}
	.st6{fill:url(#SVGID_7_);}
	.st7{fill:url(#SVGID_8_);}
	.st8{fill:url(#SVGID_9_);}
	.st9{fill:url(#SVGID_10_);}
	.st10{fill:url(#SVGID_11_);}
</style>
<g>
	
		<image style="overflow:visible;opacity:0.3;" width="476" height="412" xlink:href="8094DF22.png"  transform="matrix(1 0 0 1 13 -434)">
	</image>
	<g>
		<g>
			
				<radialGradient id="SVGID_1_" cx="76.5241" cy="-393.5152" r="489.9888" gradientTransform="matrix(0.9868 0 0 0.9868 3.3002 3.3002)" gradientUnits="userSpaceOnUse">
				<stop  offset="0" style="stop-color:#FFFFFF"/>
				<stop  offset="6.744033e-02" style="stop-color:#F6FFF8"/>
				<stop  offset="0.1797" style="stop-color:#DCFFE5"/>
				<stop  offset="0.3228" style="stop-color:#B3FFC5"/>
				<stop  offset="0.4895" style="stop-color:#7AFF9A"/>
				<stop  offset="0.6" style="stop-color:#50FF7B"/>
				<stop  offset="0.8652" style="stop-color:#31C600"/>
				<stop  offset="1" style="stop-color:#31C600"/>
			</radialGradient>
			<path class="st0" d="M396.2-218.3c0-1.4-0.1-2.4-0.1-2.9c0-8.1-3.4-16.3-11.1-16.3c-2.3,0-4.4,0.5-6.3,1.3
				c0.3-1.2,0.8-2.7,1.5-4.4c4.3-10.8,4.4-67.8,4.4-74.3c0-3.3-0.4-6.7-1.1-10.1c-2.6-58.4-61.7-104-134.9-104
				s-132.3,45.7-134.9,104c-0.8,3.4-1.1,6.8-1.1,10.1c0,6.3,0.1,61.4,4.4,72.2c1,2.6,1.6,4.8,2,6.7c-1.9-0.9-4.2-1.5-6.7-1.5
				c-7.7,0-11.1,8.2-11.1,16.3c0,0.5,0,1.5-0.1,2.9c-0.3,14.8-1.4,22.4,1.3,35.8l0.7,2.1c4.8,14.6,9.8,28.8,13.5,33.4
				c5.3,6.6,11,6.6,14.5,6.6c1,0,2-0.2,2.8-0.5c2.6,10,8.3,30.3,15,38.6c7.1,8.9,8.5,19.6,8.5,35.1c0,12.7-7.1,26.3-11.6,31.9
				l-5,6.3h136.1c0,0,5.1,0.1,5.1-3.8s-5.1-3.9-5.1-3.9H156c4.2-7.2,9.2-18.6,9.2-30.5c0-13.7-0.8-28.1-10.2-39.9
				c-6.4-8-12.9-32.4-14.9-41.1l-1.9-8.4l-5,7.1c-0.4,0.5-1.3,1.4-2,1.4c-2.9,0-5.4,0-8.4-3.8c-3.3-4.2-10-24.4-12.2-31l-0.7-2.2
				c-1-3.1-1.3-14.3-0.9-33.2c0-1.5,0.1-2.6,0.1-3.1c0-3.1,1.1-8.6,3.4-8.6c4.3,0,7.4,3.7,7.4,3.8l4.1,5.2l2.5-6.1
				c0.3-0.7,2.5-7-2.1-18.5c-2.9-7.1-3.9-45.4-3.9-69.3c0-2.9,0.3-5.8,1-8.7l0.1-0.7c2.2-54.4,58-97,127.2-97s125,42.6,127.2,97
				l0.1,0.7c0.7,2.9,1,5.9,1,8.7c0,24.8-1,64.3-3.9,71.4c-4.4,11.1-2.7,15.6-1.7,17.1l2.9,4.3l3.3-4c0,0,3.2-3.8,7.4-3.8
				c2.3,0,3.4,5.5,3.4,8.6c0,0.5,0,1.6,0.1,3.1c0.4,18.9,0.1,30.1-0.9,33.2l-0.7,2.2c-2.2,6.6-8.8,26.8-12.2,31
				c-3,3.8-5.5,3.8-8.4,3.8c-0.7,0-1.7-0.9-2-1.4l-5-7.5l-2,8.8c-2,8.7-8.5,33.1-14.9,41.1c-9.3,11.7-10.2,20.8-10.2,34.4
				c0,0-1.5,5.1,3.7,5.1s4-5.1,4-5.1c0-15.3,1.4-20.8,8.5-29.6c6.6-8.3,12.4-28.6,15-38.6c0.9,0.3,1.8,0.5,2.8,0.5
				c3.4,0,9.1,0,14.5-6.6c3.7-4.6,8.7-18.8,13.5-33.4l0.7-2.1C397.6-193.3,396.6-203.5,396.2-218.3z"/>
			<g>
				
					<radialGradient id="SVGID_2_" cx="76.5241" cy="-393.5152" r="489.9888" gradientTransform="matrix(0.9868 0 0 0.9868 3.3002 3.3002)" gradientUnits="userSpaceOnUse">
					<stop  offset="0" style="stop-color:#FFFFFF"/>
					<stop  offset="6.744033e-02" style="stop-color:#F6FFF8"/>
					<stop  offset="0.1797" style="stop-color:#DCFFE5"/>
					<stop  offset="0.3228" style="stop-color:#B3FFC5"/>
					<stop  offset="0.4895" style="stop-color:#7AFF9A"/>
					<stop  offset="0.6" style="stop-color:#50FF7B"/>
					<stop  offset="0.8652" style="stop-color:#31C600"/>
					<stop  offset="1" style="stop-color:#31C600"/>
				</radialGradient>
				<path class="st1" d="M74.5-188.9H20.6c-0.9,0-1.7-0.7-1.7-1.7v-5.2c0-0.9,0.7-1.7,1.7-1.7h53.9c0.9,0,1.7,0.7,1.7,1.7v5.2
					C76.1-189.6,75.4-188.9,74.5-188.9z"/>
				
					<radialGradient id="SVGID_3_" cx="77.321" cy="-403.3935" r="518.298" gradientTransform="matrix(0.9868 0 0 0.9868 3.3002 3.3002)" gradientUnits="userSpaceOnUse">
					<stop  offset="0" style="stop-color:#FFFFFF"/>
					<stop  offset="6.744033e-02" style="stop-color:#F6FFF8"/>
					<stop  offset="0.1797" style="stop-color:#DCFFE5"/>
					<stop  offset="0.3228" style="stop-color:#B3FFC5"/>
					<stop  offset="0.4895" style="stop-color:#7AFF9A"/>
					<stop  offset="0.6" style="stop-color:#50FF7B"/>
					<stop  offset="0.8652" style="stop-color:#31C600"/>
					<stop  offset="1" style="stop-color:#31C600"/>
				</radialGradient>
				<path class="st2" d="M71.8-203.8l-51.2-16.9c-0.9-0.3-1.3-1.2-1-2.1l1.6-5c0.3-0.9,1.2-1.3,2.1-1l51.2,16.9
					c0.9,0.3,1.3,1.2,1,2.1l-1.6,5C73.6-204,72.7-203.5,71.8-203.8z"/>
				
					<radialGradient id="SVGID_4_" cx="77.321" cy="-406.1123" r="518.3008" gradientTransform="matrix(0.9868 0 0 0.9868 3.3002 3.3002)" gradientUnits="userSpaceOnUse">
					<stop  offset="0" style="stop-color:#FFFFFF"/>
					<stop  offset="6.744033e-02" style="stop-color:#F6FFF8"/>
					<stop  offset="0.1797" style="stop-color:#DCFFE5"/>
					<stop  offset="0.3228" style="stop-color:#B3FFC5"/>
					<stop  offset="0.4895" style="stop-color:#7AFF9A"/>
					<stop  offset="0.6" style="stop-color:#50FF7B"/>
					<stop  offset="0.8652" style="stop-color:#31C600"/>
					<stop  offset="1" style="stop-color:#31C600"/>
				</radialGradient>
				<path class="st3" d="M71.8-182.4l-51.2,16.9c-0.9,0.3-1.3,1.2-1,2.1l1.6,5c0.3,0.9,1.2,1.3,2.1,1l51.2-16.9
					c0.9-0.3,1.3-1.2,1-2.1l-1.6-5C73.6-182.2,72.7-182.7,71.8-182.4z"/>
				
					<radialGradient id="SVGID_5_" cx="76.5241" cy="-393.5152" r="489.9888" gradientTransform="matrix(0.9868 0 0 0.9868 3.3002 3.3002)" gradientUnits="userSpaceOnUse">
					<stop  offset="0" style="stop-color:#FFFFFF"/>
					<stop  offset="6.744033e-02" style="stop-color:#F6FFF8"/>
					<stop  offset="0.1797" style="stop-color:#DCFFE5"/>
					<stop  offset="0.3228" style="stop-color:#B3FFC5"/>
					<stop  offset="0.4895" style="stop-color:#7AFF9A"/>
					<stop  offset="0.6" style="stop-color:#50FF7B"/>
					<stop  offset="0.8652" style="stop-color:#31C600"/>
					<stop  offset="1" style="stop-color:#31C600"/>
				</radialGradient>
				<path class="st4" d="M425.5-188.9h53.9c0.9,0,1.7-0.7,1.7-1.7v-5.2c0-0.9-0.7-1.7-1.7-1.7h-53.9c-0.9,0-1.7,0.7-1.7,1.7v5.2
					C423.9-189.6,424.6-188.9,425.5-188.9z"/>
				
					<radialGradient id="SVGID_6_" cx="67.0044" cy="-403.3935" r="505.0403" gradientTransform="matrix(0.9868 0 0 0.9868 3.3002 3.3002)" gradientUnits="userSpaceOnUse">
					<stop  offset="0" style="stop-color:#FFFFFF"/>
					<stop  offset="6.744033e-02" style="stop-color:#F6FFF8"/>
					<stop  offset="0.1797" style="stop-color:#DCFFE5"/>
					<stop  offset="0.3228" style="stop-color:#B3FFC5"/>
					<stop  offset="0.4895" style="stop-color:#7AFF9A"/>
					<stop  offset="0.6" style="stop-color:#50FF7B"/>
					<stop  offset="0.8652" style="stop-color:#31C600"/>
					<stop  offset="1" style="stop-color:#31C600"/>
				</radialGradient>
				<path class="st5" d="M428.2-203.8l51.2-16.9c0.9-0.3,1.3-1.2,1-2.1l-1.6-5c-0.3-0.9-1.2-1.3-2.1-1l-51.2,16.9
					c-0.9,0.3-1.3,1.2-1,2.1l1.6,5C426.4-204,427.3-203.5,428.2-203.8z"/>
				
					<radialGradient id="SVGID_7_" cx="67.0044" cy="-406.1122" r="506.2365" gradientTransform="matrix(0.9868 0 0 0.9868 3.3002 3.3002)" gradientUnits="userSpaceOnUse">
					<stop  offset="0" style="stop-color:#FFFFFF"/>
					<stop  offset="6.744033e-02" style="stop-color:#F6FFF8"/>
					<stop  offset="0.1797" style="stop-color:#DCFFE5"/>
					<stop  offset="0.3228" style="stop-color:#B3FFC5"/>
					<stop  offset="0.4895" style="stop-color:#7AFF9A"/>
					<stop  offset="0.6" style="stop-color:#50FF7B"/>
					<stop  offset="0.8652" style="stop-color:#31C600"/>
					<stop  offset="1" style="stop-color:#31C600"/>
				</radialGradient>
				<path class="st6" d="M428.2-182.4l51.2,16.9c0.9,0.3,1.3,1.2,1,2.1l-1.6,5c-0.3,0.9-1.2,1.3-2.1,1l-51.2-16.9
					c-0.9-0.3-1.3-1.2-1-2.1l1.6-5C426.4-182.2,427.3-182.7,428.2-182.4z"/>
			</g>
		</g>
	</g>
</g>
<g>
	
		<image style="overflow:visible;opacity:0.3;" width="416" height="412" xlink:href="8094DF26.png"  transform="matrix(1 0 0 1 43 45)">
	</image>
	<g>
		<g>
			<radialGradient id="SVGID_8_" cx="-72.7352" cy="88.961" r="773.5999" gradientUnits="userSpaceOnUse">
				<stop  offset="0" style="stop-color:#F2F2F2"/>
				<stop  offset="8.995427e-02" style="stop-color:#F3E9EC"/>
				<stop  offset="0.2395" style="stop-color:#F6CFDD"/>
				<stop  offset="0.429" style="stop-color:#FAA6C5"/>
				<stop  offset="0.6" style="stop-color:#FF7BAC"/>
				<stop  offset="0.8652" style="stop-color:#C51843"/>
				<stop  offset="1" style="stop-color:#C51843"/>
			</radialGradient>
			<path class="st7" d="M216.1,50c46.4,0,85,15,111.6,43.3c24.3,25.9,37.7,62.5,37.7,103.2c1.7,17.1,3.4,21.3,5.1,25.3
				c0.9,2.1,1.7,4.2,2.6,7.7c1.1,4.3,7.2,13,12.7,20.8c8.3,11.8,13.4,19.3,13.4,24.3c0,8.7-10.4,12.1-18,14.7
				c-2,0.7-3.9,1.3-4.9,1.8c-2.8,1.4-3,4-3,6.9c0,0.4,0.6,1.5,0.9,2.2c0.8,1.5,1.7,4.3,1.7,5.6c0,0.9,0.1,1.8,0.2,2.7
				c0.6,4.4,0.4,9.3-8.4,11.5c-1.6,0.4-10.9-0.2-12.6,0.1c6,2.7,18.2,7.1,18.2,11.7c0,6.3-4.6,8.6-7.3,10c-2.8,1.4-3,1.7-3,3
				c0,2.5,1.2,4.2,3.1,6.8c2.1,2.8,4.7,6.2,4.7,11.4c0,8.2,0,14.6-8.9,23.5c-8.8,8.8-20.4,8.9-20.9,8.9h-26c-10,0-19.6,2.6-26.4,7.1
				c-4.9,3.3-6,14-6.1,17.5V450H147.3c0,0-7.8-0.2-7.8-4c0-3.8,7.8-3.8,7.8-3.8h127.3v-22.1c0-1.8,0.3-17.8,9.5-24
				c8.2-5.4,19.1-8.4,30.7-8.4h26c0.1,0,8.9-0.1,15.4-6.7c6.7-6.7,6.7-10.5,6.7-18c0-2.5-1.2-4.2-3.1-6.8c-2.1-2.8-4.7-6.2-4.7-11.4
				c0-6.3,4.6-8.6,7.3-10c2.8-1.4,3-1.7,3.1-2.8c-1-2.6-20.9-7.1-33.2-9.3c0,0-3.2,0.1-3.2-5.1c0-2.6,3.9-2.6,3.9-2.6
				c0.2,0,23,0,32.8-2.5c2-0.5,2.6-1,2.7-0.9c0.1-0.3-0.1-1.3-0.2-2c-0.1-1-0.3-2.4-0.3-3.7c0-0.4-0.6-1.5-0.9-2.2
				c-0.8-1.5-1.7-3.4-1.7-5.6c0-2.8,0-10.2,7.3-13.9c1.5-0.8,3.6-1.5,5.9-2.2c4.4-1.5,12.7-4.2,12.7-7.3c0-2.8-7.2-13.1-12-19.9
				c-6.4-9.1-12.4-17.7-13.9-23.4c-0.7-3-1.5-4.8-2.3-6.7c-1.9-4.5-3.8-9.2-5.6-27.7l0-0.4c0-84.4-55.6-139-141.6-139
				c-98.5,0-159.7,52.7-159.7,137.7c0,10.3,1.2,20.7,3.5,30.9l0,0c1,4.3,5.3,17.6,5.3,17.6c3.1,8.3,7.1,16.4,11.8,23.9l0.2,0.4
				c14.6,30.5,32.2,71.7,33.7,94.5c0.7,10,0,20.3-1.3,30.1c0,0,1.3,5.2-3.8,5.2c-5.2,0-4.1-5.2-4.1-5.2c1.4-9.7,2.1-19.8,1.5-29.6
				c-1.1-17-12.5-48.6-32.9-91.4c-4.9-7.9-9.1-16.4-12.4-25.3c-0.2-0.6-4.5-13.8-5.5-18.4c-2.5-10.8-3.7-21.8-3.7-32.7
				C48.6,125.1,92.6,50,216.1,50z"/>
			<radialGradient id="SVGID_9_" cx="-72.7352" cy="88.961" r="773.5999" gradientUnits="userSpaceOnUse">
				<stop  offset="0" style="stop-color:#F2F2F2"/>
				<stop  offset="8.995427e-02" style="stop-color:#F3E9EC"/>
				<stop  offset="0.2395" style="stop-color:#F6CFDD"/>
				<stop  offset="0.429" style="stop-color:#FAA6C5"/>
				<stop  offset="0.6" style="stop-color:#FF7BAC"/>
				<stop  offset="0.8652" style="stop-color:#C51843"/>
				<stop  offset="1" style="stop-color:#C51843"/>
			</radialGradient>
			<path class="st8" d="M395.4,332.2h54.3c0.9,0,1.7-0.7,1.7-1.7v-5.3c0-0.9-0.7-1.7-1.7-1.7h-54.3c-0.9,0-1.7,0.7-1.7,1.7v5.3
				C393.8,331.5,394.5,332.2,395.4,332.2z"/>
			<radialGradient id="SVGID_10_" cx="-85.2441" cy="76.4469" r="797.2298" gradientUnits="userSpaceOnUse">
				<stop  offset="0" style="stop-color:#F2F2F2"/>
				<stop  offset="8.995427e-02" style="stop-color:#F3E9EC"/>
				<stop  offset="0.2395" style="stop-color:#F6CFDD"/>
				<stop  offset="0.429" style="stop-color:#FAA6C5"/>
				<stop  offset="0.6" style="stop-color:#FF7BAC"/>
				<stop  offset="0.8652" style="stop-color:#C51843"/>
				<stop  offset="1" style="stop-color:#C51843"/>
			</radialGradient>
			<path class="st9" d="M398.2,317.2l51.6-17.1c0.9-0.3,1.3-1.2,1-2.1l-1.7-5c-0.3-0.9-1.2-1.3-2.1-1L395.5,309
				c-0.9,0.3-1.3,1.2-1,2.1l1.7,5C396.4,317,397.3,317.4,398.2,317.2z"/>
			<radialGradient id="SVGID_11_" cx="-85.244" cy="73.733" r="798.6793" gradientUnits="userSpaceOnUse">
				<stop  offset="0" style="stop-color:#F2F2F2"/>
				<stop  offset="8.995427e-02" style="stop-color:#F3E9EC"/>
				<stop  offset="0.2395" style="stop-color:#F6CFDD"/>
				<stop  offset="0.429" style="stop-color:#FAA6C5"/>
				<stop  offset="0.6" style="stop-color:#FF7BAC"/>
				<stop  offset="0.8652" style="stop-color:#C51843"/>
				<stop  offset="1" style="stop-color:#C51843"/>
			</radialGradient>
			<path class="st10" d="M398.2,338.7l51.6,17.1c0.9,0.3,1.3,1.2,1,2.1l-1.7,5c-0.3,0.9-1.2,1.3-2.1,1l-51.6-17.1
				c-0.9-0.3-1.3-1.2-1-2.1l1.7-5C396.4,338.9,397.3,338.4,398.2,338.7z"/>
		</g>
	</g>
</g>
</svg>
