<?xml version="1.0" encoding="utf-8"?>
<!-- Generator: Adobe Illustrator 24.0.0, SVG Export Plug-In . SVG Version: 6.00 Build 0)  -->
<svg version="1.1" id="Calque_1" xmlns="http://www.w3.org/2000/svg" xmlns:xlink="http://www.w3.org/1999/xlink" x="0px" y="0px"
	 viewBox="0 0 500 280" style="enable-background:new 0 0 500 280;" xml:space="preserve">
<style type="text/css">
	.st0{fill:#FFFFFF;}
</style>
<g>
	<path class="st0" d="M211,147.4c-9.2,0-17.4,4.3-22.8,10.9c-5.4-6.7-13.6-10.9-22.8-10.9c-15.9,0-28.8,12.7-29.3,28.5v29.9H149
		v-29.9c0.4-8.6,7.6-15.5,16.3-15.5s15.9,6.9,16.3,15.5v29.9h12.9v-29.9c0.4-8.6,7.6-15.5,16.3-15.5s15.9,6.9,16.3,15.5V206H240
		v-30.1C239.8,160.1,226.9,147.4,211,147.4z"/>
	<path class="st0" d="M271.8,121.1c-7.3-2-12-8.7-11.9-15.9l45.8-0.1c-0.1-2.6-0.5-5.1-1.2-7.6v-0.1l0,0
		c-2.9-9.8-10.7-17.6-20.6-20.3c-15.6-4.3-31.7,4.9-36,20.5s4.9,31.7,20.5,36c12.4,3.4,25.1-1.7,31.9-11.7l-11.2-6.7
		C285.1,120.4,278.4,123,271.8,121.1z M280.4,89.8c4.1,1.1,7.5,4,9.6,7.8h-28.1C265.4,91.2,273,87.8,280.4,89.8z"/>
	<path class="st0" d="M184.9,74.3v5.9c-4.3-2.5-9.4-4-14.8-4c-16.2,0-29.3,13.1-29.3,29.3s13.1,29.3,29.3,29.3
		c5.4,0,10.4-1.5,14.8-4v4h12.9V74.3H184.9z M170.2,121.7c-9,0-16.3-7.3-16.3-16.3s7.3-16.3,16.3-16.3c6.6,0,12.2,3.9,14.8,9.5v0.2
		c0.9,2,1.4,4.2,1.4,6.6c0,2.3-0.5,4.6-1.4,6.6v0.2C182.4,117.8,176.7,121.7,170.2,121.7z"/>
	<path class="st0" d="M124,78.8v27.4c-0.4,8.6-7.6,15.5-16.3,15.5s-15.9-6.9-16.3-15.5V78.8h-13v27.4c-0.4,8.6-7.7,15.5-16.4,15.5
		s-15.9-6.9-16.3-15.5V78.8h-13v27.4c0.4,15.8,13.4,28.5,29.3,28.5c9.2,0,17.5-4.3,22.8-11c5.4,6.7,13.6,11,22.8,11
		c15.9,0,28.8-12.7,29.3-28.5V78.8H124z"/>
	<path class="st0" d="M271.8,192.4c-7.3-2-12-8.7-11.9-15.9l45.8-0.1c-0.1-2.6-0.5-5.1-1.2-7.6v-0.1l0,0
		c-2.9-9.8-10.7-17.6-20.6-20.3c-15.6-4.3-31.7,4.9-36,20.5s4.9,31.7,20.5,36c12.4,3.4,25.1-1.7,31.9-11.7l-11.2-6.7
		C285.1,191.6,278.4,194.2,271.8,192.4z M280.4,161c4.1,1.1,7.5,4,9.6,7.8h-28.1C265.4,162.4,273,159,280.4,161z"/>
	<path class="st0" d="M226.2,100.8c1.6-1.4,3.3-3,3.3-3l26.3-23.6l-19-0.2l-20,18l0,0v-7.2c0,0,0-4.6,0-6.9s0-6.2,0-6.2V47.1h-12.9
		v87.4h12.9v-24.7c0.6,0.6,1.1,1.2,1.5,1.7c1.6,1.7,4.2,4.6,4.2,4.6l16.8,18.5l17.6,0.2L226.2,100.8z"/>
	<path class="st0" d="M452.8,159.8"/>
	<path class="st0" d="M429,136.1"/>
	<g>
		<path class="st0" d="M416.7,160.3c-6.6,0-12.2,3.9-14.8,9.5l-0.1,0.2c-0.9,2-1.3,4.2-1.3,6.6s0.5,4.6,1.4,6.6v0.2
			c2.6,5.6,8.2,9.5,14.8,9.5c9,0,16.3-7.3,16.3-16.3S425.7,160.3,416.7,160.3z"/>
		<path class="st0" d="M444.1,24.1H336.9c-12.8,0-23.2,10.4-23.2,23.2v185.4c0,12.8,10.4,23.2,23.2,23.2h107.2
			c12.8,0,23.2-10.4,23.2-23.2V47.3C467.3,34.5,456.9,24.1,444.1,24.1z M380.6,177.2c-0.2,6.6-2.6,12.7-6.5,17.5
			c-2.3,2.9-5.2,5.4-8.5,7.2c-1.8,1-3.8,1.9-5.9,2.5c-0.1,0.1-0.1,0.1-0.2,0.1c-0.4,0.1-0.9,0.2-1.3,0.3c-0.1,0-0.3,0.1-0.4,0.1
			c-0.3,0.1-0.7,0.1-1.1,0.2c-0.2,0-0.3,0.1-0.5,0.1c-0.4,0.1-0.7,0.2-1.1,0.2c-0.2,0.1-0.3,0.1-0.5,0.1c-0.4,0-0.8,0.1-1.2,0.1
			c-0.2,0-0.3,0-0.5,0c-0.5,0-1.1,0-1.6,0s-1.1,0-1.6,0c-0.2,0-0.3,0-0.5,0c-0.4,0-0.8-0.1-1.2-0.1c-0.2-0.1-0.3-0.1-0.5-0.1
			c-0.4-0.1-0.7-0.1-1.1-0.2c-0.2,0-0.3-0.1-0.5-0.1c-0.3,0-0.7-0.1-1.1-0.2c-0.1,0-0.3-0.1-0.4-0.1c-0.4-0.1-0.9-0.2-1.3-0.3
			c-0.1-0.1-0.1-0.1-0.2-0.1c-2.1-0.6-4-1.5-5.9-2.5c-3.3-1.8-6.2-4.3-8.5-7.2c-3.9-4.8-6.3-10.9-6.5-17.5v-29.9h12.9v29.9
			c0.4,8.6,7.6,15.5,16.3,15.5c8.8,0,16-6.8,16.5-15.5v-29.9h12.9V177.2z M436.4,198.3c-5.2,4.7-12.1,7.6-19.7,7.6
			c-5.4,0-10.5-1.5-14.8-4c-0.6-0.3-1.1-0.7-1.7-1.1v32.1h-12.9v-56.2c0-3.5,0.6-6.9,1.7-10c2.3-6.5,7-11.9,12.9-15.3
			c4.4-2.5,9.4-4,14.8-4c1,0,1.9,0,2.9,0.1c14.8,1.5,26.3,14,26.3,29.2C445.9,185.2,442.3,192.9,436.4,198.3z M422.6,138.6
			c2.6-1.2,5.6-1.4,8.3-0.4c2.7,1,4.9,2.9,6.1,5.6c0.5,1.4-0.1,2.8-1.3,3.4c-1.2,0.6-2.7,0-3.3-1.2c-0.8-1.5-1.8-2.5-3.2-3
			c-1.4-0.5-3-0.5-4.4,0.2c-1.3,0.6-2.8,0.1-3.4-1.2C420.8,140.7,421.3,139.2,422.6,138.6z M450.1,144c-0.2,0.6-0.7,1.1-1.3,1.4
			c-1.3,0.6-2.8,0-3.3-1.2c-2.5-5.4-6.9-9.5-12.5-11.6c-5.6-2-11.6-1.8-17,0.8c-1.3,0.6-2.8,0.1-3.4-1.2c-0.6-1.3-0.1-2.8,1.2-3.4
			c6.6-3.1,14-3.5,20.9-1c6.8,2.5,12.3,7.6,15.3,14.2C450.3,142.7,450.3,143.4,450.1,144z M462.9,142.9c-0.2,0.6-0.7,1.1-1.3,1.4
			c-1.3,0.6-2.8,0-3.3-1.2c-4.3-9.5-12-16.6-21.7-20.2c-9.7-3.6-20.2-3.1-29.6,1.4c-1.3,0.6-2.8,0.1-3.4-1.2
			c-0.6-1.3-0.1-2.8,1.2-3.4c10.6-5,22.5-5.6,33.5-1.5c11,4,19.7,12.1,24.6,22.8C463.1,141.6,463.1,142.3,462.9,142.9z"/>
	</g>
</g>
</svg>
