<?xml version="1.0" encoding="UTF-8" standalone="no"?>
<!-- Generator: Adobe Illustrator 16.0.0, SVG Export Plug-In . SVG Version: 6.00 Build 0)  -->

<svg
   xmlns:dc="http://purl.org/dc/elements/1.1/"
   xmlns:cc="http://creativecommons.org/ns#"
   xmlns:rdf="http://www.w3.org/1999/02/22-rdf-syntax-ns#"
   xmlns:svg="http://www.w3.org/2000/svg"
   xmlns="http://www.w3.org/2000/svg"
   xmlns:sodipodi="http://sodipodi.sourceforge.net/DTD/sodipodi-0.dtd"
   xmlns:inkscape="http://www.inkscape.org/namespaces/inkscape"
   version="1.1"
   id="Capa_1"
   x="0px"
   y="0px"
   width="60"
   height="60"
   viewBox="0 0 59.999999 59.999999"
   xml:space="preserve"
   sodipodi:docname="arrow-down.svg"
   inkscape:version="0.92.4 (5da689c313, 2019-01-14)"><metadata
   id="metadata44"><rdf:RDF><cc:Work
       rdf:about=""><dc:format>image/svg+xml</dc:format><dc:type
         rdf:resource="http://purl.org/dc/dcmitype/StillImage" /><dc:title></dc:title></cc:Work></rdf:RDF></metadata><defs
   id="defs42" /><sodipodi:namedview
   pagecolor="#ffffff"
   bordercolor="#666666"
   borderopacity="1"
   objecttolerance="10"
   gridtolerance="10"
   guidetolerance="10"
   inkscape:pageopacity="0"
   inkscape:pageshadow="2"
   inkscape:window-width="1920"
   inkscape:window-height="1016"
   id="namedview40"
   showgrid="false"
   inkscape:zoom="4.1846014"
   inkscape:cx="-19.862899"
   inkscape:cy="83.830849"
   inkscape:window-x="1920"
   inkscape:window-y="27"
   inkscape:window-maximized="1"
   inkscape:current-layer="g4"
   inkscape:snap-to-guides="true" />
<g
   id="g7"
   transform="translate(0,-578.06201)">
	<g
   id="g854"
   transform="matrix(0,0.05932091,-0.05932091,0,48.925202,589.13684)"><g
     id="_x35__40_">
		<g
   id="g4">
			<path
   id="path2"
   d="M 483.53243,301.2597 192.77643,54.988398 c -10.473,-8.862308 -27.431,-8.862308 -37.903,0 -10.473,8.86316 -10.473,23.25159 0,32.09184 l 273.825,231.949902 -273.826,231.92784 c -10.473,8.86316 -10.473,23.22867 0,32.11474 10.473,8.86316 27.431,8.86316 37.903,0 l 290.729,-246.27045 c 5.768,-4.87109 8.027,-11.38906 7.442,-17.77129 0.613,-6.38222 -1.673,-12.9002 -7.414,-17.77128 z"
   inkscape:connector-curvature="0"
   sodipodi:nodetypes="ccscccccccc"
   style="stroke-width:0.92112654" />
		</g>
	</g></g>
</g>
<g
   id="g9"
   transform="translate(0,-578.06201)">
</g>
<g
   id="g11"
   transform="translate(0,-578.06201)">
</g>
<g
   id="g13"
   transform="translate(0,-578.06201)">
</g>
<g
   id="g15"
   transform="translate(0,-578.06201)">
</g>
<g
   id="g17"
   transform="translate(0,-578.06201)">
</g>
<g
   id="g19"
   transform="translate(0,-578.06201)">
</g>
<g
   id="g21"
   transform="translate(0,-578.06201)">
</g>
<g
   id="g23"
   transform="translate(0,-578.06201)">
</g>
<g
   id="g25"
   transform="translate(0,-578.06201)">
</g>
<g
   id="g27"
   transform="translate(0,-578.06201)">
</g>
<g
   id="g29"
   transform="translate(0,-578.06201)">
</g>
<g
   id="g31"
   transform="translate(0,-578.06201)">
</g>
<g
   id="g33"
   transform="translate(0,-578.06201)">
</g>
<g
   id="g35"
   transform="translate(0,-578.06201)">
</g>
<g
   id="g37"
   transform="translate(0,-578.06201)">
</g>
</svg>