<?xml version="1.0" encoding="UTF-8" standalone="no"?>
<!-- Generator: Adobe Illustrator 19.0.0, SVG Export Plug-In . SVG Version: 6.00 Build 0)  -->

<svg
   xmlns:dc="http://purl.org/dc/elements/1.1/"
   xmlns:cc="http://creativecommons.org/ns#"
   xmlns:rdf="http://www.w3.org/1999/02/22-rdf-syntax-ns#"
   xmlns:svg="http://www.w3.org/2000/svg"
   xmlns="http://www.w3.org/2000/svg"
   xmlns:sodipodi="http://sodipodi.sourceforge.net/DTD/sodipodi-0.dtd"
   xmlns:inkscape="http://www.inkscape.org/namespaces/inkscape"
   version="1.1"
   id="Capa_1"
   x="0px"
   y="0px"
   viewBox="0 0 288.941 288.941"
   style="enable-background:new 0 0 288.941 288.941;"
   xml:space="preserve"
   sodipodi:docname="checked.svg"
   inkscape:version="0.92.4 (5da689c313, 2019-01-14)"><metadata
   id="metadata52"><rdf:RDF><cc:Work
       rdf:about=""><dc:format>image/svg+xml</dc:format><dc:type
         rdf:resource="http://purl.org/dc/dcmitype/StillImage" /></cc:Work></rdf:RDF></metadata><defs
   id="defs50" /><sodipodi:namedview
   pagecolor="#ffffff"
   bordercolor="#666666"
   borderopacity="1"
   objecttolerance="10"
   gridtolerance="10"
   guidetolerance="10"
   inkscape:pageopacity="0"
   inkscape:pageshadow="2"
   inkscape:window-width="1920"
   inkscape:window-height="1043"
   id="namedview48"
   showgrid="false"
   inkscape:zoom="0.81677572"
   inkscape:cx="146.91916"
   inkscape:cy="144.4705"
   inkscape:window-x="0"
   inkscape:window-y="0"
   inkscape:window-maximized="1"
   inkscape:current-layer="Capa_1" />
<g
   id="g15"
   transform="matrix(0.49576247,0,0,0.49576247,72.847484,72.847453)">
	<path
   id="Check"
   d="m 285.377,46.368 c -4.74,-4.704 -12.439,-4.704 -17.179,0 L 96.309,217.114 20.734,142.61 c -4.74,-4.704 -12.439,-4.704 -17.179,0 -4.74,4.704 -4.74,12.319 0,17.011 l 84.2,82.997 c 4.692,4.644 12.499,4.644 17.191,0 L 285.376,63.379 c 4.753,-4.692 4.753,-12.319 0.001,-17.011 -4.74,-4.704 4.752,4.692 0,0 z"
   inkscape:connector-curvature="0" />
	<g
   id="g3">
	</g>
	<g
   id="g5">
	</g>
	<g
   id="g7">
	</g>
	<g
   id="g9">
	</g>
	<g
   id="g11">
	</g>
	<g
   id="g13">
	</g>
</g>
<g
   id="g17"
   transform="matrix(0.49576247,0,0,0.49576247,11.905083,115.71852)">
</g>
<g
   id="g19"
   transform="matrix(0.49576247,0,0,0.49576247,11.905083,115.71852)">
</g>
<g
   id="g21"
   transform="matrix(0.49576247,0,0,0.49576247,11.905083,115.71852)">
</g>
<g
   id="g23"
   transform="matrix(0.49576247,0,0,0.49576247,11.905083,115.71852)">
</g>
<g
   id="g25"
   transform="matrix(0.49576247,0,0,0.49576247,11.905083,115.71852)">
</g>
<g
   id="g27"
   transform="matrix(0.49576247,0,0,0.49576247,11.905083,115.71852)">
</g>
<g
   id="g29"
   transform="matrix(0.49576247,0,0,0.49576247,11.905083,115.71852)">
</g>
<g
   id="g31"
   transform="matrix(0.49576247,0,0,0.49576247,11.905083,115.71852)">
</g>
<g
   id="g33"
   transform="matrix(0.49576247,0,0,0.49576247,11.905083,115.71852)">
</g>
<g
   id="g35"
   transform="matrix(0.49576247,0,0,0.49576247,11.905083,115.71852)">
</g>
<g
   id="g37"
   transform="matrix(0.49576247,0,0,0.49576247,11.905083,115.71852)">
</g>
<g
   id="g39"
   transform="matrix(0.49576247,0,0,0.49576247,11.905083,115.71852)">
</g>
<g
   id="g41"
   transform="matrix(0.49576247,0,0,0.49576247,11.905083,115.71852)">
</g>
<g
   id="g43"
   transform="matrix(0.49576247,0,0,0.49576247,11.905083,115.71852)">
</g>
<g
   id="g45"
   transform="matrix(0.49576247,0,0,0.49576247,11.905083,115.71852)">
</g>
</svg>