<?xml version="1.0" encoding="UTF-8" standalone="no"?>
<svg
   xmlns:dc="http://purl.org/dc/elements/1.1/"
   xmlns:cc="http://creativecommons.org/ns#"
   xmlns:rdf="http://www.w3.org/1999/02/22-rdf-syntax-ns#"
   xmlns:svg="http://www.w3.org/2000/svg"
   xmlns="http://www.w3.org/2000/svg"
   xmlns:sodipodi="http://sodipodi.sourceforge.net/DTD/sodipodi-0.dtd"
   xmlns:inkscape="http://www.inkscape.org/namespaces/inkscape"
   height="60"
   viewBox="0 -53 45 45"
   width="60"
   version="1.1"
   id="svg8"
   sodipodi:docname="mobile-menu-close.svg"
   inkscape:version="0.92.4 (5da689c313, 2019-01-14)">
  <metadata
     id="metadata14">
    <rdf:RDF>
      <cc:Work
         rdf:about="">
        <dc:format>image/svg+xml</dc:format>
        <dc:type
           rdf:resource="http://purl.org/dc/dcmitype/StillImage" />
        <dc:title></dc:title>
      </cc:Work>
    </rdf:RDF>
  </metadata>
  <defs
     id="defs12" />
  <sodipodi:namedview
     pagecolor="#ffffff"
     bordercolor="#666666"
     borderopacity="1"
     objecttolerance="10"
     gridtolerance="10"
     guidetolerance="10"
     inkscape:pageopacity="0"
     inkscape:pageshadow="2"
     inkscape:window-width="1920"
     inkscape:window-height="1043"
     id="namedview10"
     showgrid="false"
     units="px"
     inkscape:zoom="2.6074563"
     inkscape:cx="-96.359795"
     inkscape:cy="64.621854"
     inkscape:window-x="0"
     inkscape:window-y="0"
     inkscape:window-maximized="1"
     inkscape:current-layer="g824" />
  <g
     id="g824"
     transform="matrix(0.08290092,0,0,0.08290092,6.5830234,-13.892128)">
    <path
       inkscape:connector-curvature="0"
       id="path4"
       d="M 305.13708,-64.569489 56.235498,-313.47107 c -6.245189,-6.24519 -6.245188,-16.38223 0,-22.62742 6.245188,-6.24519 16.382228,-6.24519 22.627417,0 L 327.7645,-87.196909 c 6.24519,6.24519 6.24519,16.38223 0,22.62742 -6.24519,6.24519 -16.38223,6.24519 -22.62742,0 z m 0,0" />
    <path
       style="stroke-width:1"
       inkscape:connector-curvature="0"
       id="path4-3"
       d="M 327.7645,-313.47107 78.862921,-64.569477 c -6.245199,6.24518 -16.382238,6.24518 -22.627427,-10e-6 -6.24519,-6.24518 -6.24519,-16.38222 10e-7,-22.62741 L 305.13709,-336.09848 c 6.24519,-6.2452 16.38222,-6.24521 22.62741,-1e-5 6.2452,6.2452 6.2452,16.38222 0,22.62742 z m 0,0" />
  </g>
</svg>
