<?xml version="1.0" encoding="UTF-8" standalone="no"?>
<!-- Generator: Adobe Illustrator 19.0.0, SVG Export Plug-In . SVG Version: 6.00 Build 0)  -->

<svg
   xmlns:dc="http://purl.org/dc/elements/1.1/"
   xmlns:cc="http://creativecommons.org/ns#"
   xmlns:rdf="http://www.w3.org/1999/02/22-rdf-syntax-ns#"
   xmlns:svg="http://www.w3.org/2000/svg"
   xmlns="http://www.w3.org/2000/svg"
   xmlns:sodipodi="http://sodipodi.sourceforge.net/DTD/sodipodi-0.dtd"
   xmlns:inkscape="http://www.inkscape.org/namespaces/inkscape"
   version="1.1"
   id="Capa_1"
   x="0px"
   y="0px"
   viewBox="0 0 60 60"
   xml:space="preserve"
   sodipodi:docname="help.svg"
   width="60"
   height="60"
   inkscape:version="0.92.4 (5da689c313, 2019-01-14)"><metadata
   id="metadata49"><rdf:RDF><cc:Work
       rdf:about=""><dc:format>image/svg+xml</dc:format><dc:type
         rdf:resource="http://purl.org/dc/dcmitype/StillImage" /><dc:title></dc:title></cc:Work></rdf:RDF></metadata><defs
   id="defs47" /><sodipodi:namedview
   pagecolor="#ffffff"
   bordercolor="#666666"
   borderopacity="1"
   objecttolerance="10"
   gridtolerance="10"
   guidetolerance="10"
   inkscape:pageopacity="0"
   inkscape:pageshadow="2"
   inkscape:window-width="1920"
   inkscape:window-height="1043"
   id="namedview45"
   showgrid="false"
   inkscape:zoom="4.8557891"
   inkscape:cx="56.269117"
   inkscape:cy="7.6993854"
   inkscape:window-x="0"
   inkscape:window-y="0"
   inkscape:window-maximized="1"
   inkscape:current-layer="g8" />
<g
   id="g12"
   transform="matrix(0.08986629,0,0,0.08986629,6.9942298,6.9942298)">
	<g
   id="g10">
		<g
   id="g8">
			
			<g
   id="g4580"
   transform="translate(4.5548943e-6,39.110541)"><path
     style="stroke-width:1.40141642"
     inkscape:connector-curvature="0"
     id="path2"
     d="m 255.75546,321.67197 c -20.51534,0 -37.12493,17.09728 -37.12493,37.61401 0,20.02765 16.1205,37.61402 37.12493,37.61402 21.00442,0 37.61401,-17.58497 37.61401,-37.61402 0,-20.51673 -17.09588,-37.61401 -37.61401,-37.61401 z" /><path
     style="stroke-width:1.40141642"
     inkscape:connector-curvature="0"
     id="path4"
     d="m 252.09144,36.878918 c -65.94645,0 -96.23246,39.078497 -96.23246,65.457362 0,19.05225 16.11909,27.84474 29.30922,27.84474 26.37746,0 15.6314,-37.614017 65.45736,-37.614017 24.42529,0 43.96524,10.747467 43.96524,33.217777 0,26.38026 -27.35565,41.52257 -43.47614,55.20039 -14.16552,12.21194 -32.72868,32.24099 -32.72868,74.25125 0,25.40067 6.83751,32.72868 26.86655,32.72868 23.9362,0 28.82013,-10.74606 28.82013,-20.02765 0,-25.40207 0.4905,-40.05668 27.35705,-61.06111 13.18873,-10.25837 54.7113,-43.47614 54.7113,-89.39496 0,-45.918807 -41.52257,-80.602462 -104.04957,-80.602462 z" /></g>
			
		</g>
	</g>
</g>
<g
   id="g14"
   transform="translate(0,-452)">
</g>
<g
   id="g16"
   transform="translate(0,-452)">
</g>
<g
   id="g18"
   transform="translate(0,-452)">
</g>
<g
   id="g20"
   transform="translate(0,-452)">
</g>
<g
   id="g22"
   transform="translate(0,-452)">
</g>
<g
   id="g24"
   transform="translate(0,-452)">
</g>
<g
   id="g26"
   transform="translate(0,-452)">
</g>
<g
   id="g28"
   transform="translate(0,-452)">
</g>
<g
   id="g30"
   transform="translate(0,-452)">
</g>
<g
   id="g32"
   transform="translate(0,-452)">
</g>
<g
   id="g34"
   transform="translate(0,-452)">
</g>
<g
   id="g36"
   transform="translate(0,-452)">
</g>
<g
   id="g38"
   transform="translate(0,-452)">
</g>
<g
   id="g40"
   transform="translate(0,-452)">
</g>
<g
   id="g42"
   transform="translate(0,-452)">
</g>
</svg>