<?xml version="1.0" encoding="UTF-8" standalone="no"?>
<!-- Generator: Adobe Illustrator 16.0.0, SVG Export Plug-In . SVG Version: 6.00 Build 0)  -->

<svg
   xmlns:dc="http://purl.org/dc/elements/1.1/"
   xmlns:cc="http://creativecommons.org/ns#"
   xmlns:rdf="http://www.w3.org/1999/02/22-rdf-syntax-ns#"
   xmlns:svg="http://www.w3.org/2000/svg"
   xmlns="http://www.w3.org/2000/svg"
   xmlns:sodipodi="http://sodipodi.sourceforge.net/DTD/sodipodi-0.dtd"
   xmlns:inkscape="http://www.inkscape.org/namespaces/inkscape"
   version="1.1"
   id="Capa_1"
   x="0px"
   y="0px"
   width="456.817px"
   height="456.817px"
   viewBox="0 0 456.817 456.817"
   style="enable-background:new 0 0 456.817 456.817;"
   xml:space="preserve"
   sodipodi:docname="loading.svg"
   inkscape:version="0.92.4 (5da689c313, 2019-01-14)"><metadata
   id="metadata57"><rdf:RDF><cc:Work
       rdf:about=""><dc:format>image/svg+xml</dc:format><dc:type
         rdf:resource="http://purl.org/dc/dcmitype/StillImage" /><dc:title></dc:title></cc:Work></rdf:RDF></metadata><defs
   id="defs55">
	

		
		
		
		
		
		
		
		
	</defs><sodipodi:namedview
   pagecolor="#ffffff"
   bordercolor="#666666"
   borderopacity="1"
   objecttolerance="10"
   gridtolerance="10"
   guidetolerance="10"
   inkscape:pageopacity="0"
   inkscape:pageshadow="2"
   inkscape:window-width="1920"
   inkscape:window-height="1043"
   id="namedview53"
   showgrid="false"
   inkscape:zoom="2.0664731"
   inkscape:cx="280.69523"
   inkscape:cy="198.844"
   inkscape:window-x="0"
   inkscape:window-y="0"
   inkscape:window-maximized="1"
   inkscape:current-layer="g889" />















<g
   id="g889"
   transform="matrix(0.67283726,0,0,0.67283726,74.726744,74.726407)"><g
     id="g1030"
     transform="matrix(0.94095808,0,0,0.94095808,13.485676,13.485706)"><path
       style="opacity:0.7"
       inkscape:connector-curvature="0"
       d="m 109.641,324.332 c -11.423,0 -21.13,3.997 -29.125,11.991 -7.992,8.001 -11.991,17.706 -11.991,29.129 0,11.424 3.996,21.129 11.991,29.13 7.998,7.994 17.705,11.991 29.125,11.991 11.231,0 20.889,-3.997 28.98,-11.991 8.088,-7.991 12.132,-17.706 12.132,-29.13 0,-11.423 -4.043,-21.121 -12.132,-29.129 -8.092,-7.987 -17.749,-11.991 -28.98,-11.991 z"
       id="path2" /><path
       style="opacity:0.803"
       inkscape:connector-curvature="0"
       d="m 100.505,237.542 c 0,-12.562 -4.471,-23.313 -13.418,-32.267 -8.946,-8.946 -19.702,-13.418 -32.264,-13.418 -12.563,0 -23.317,4.473 -32.264,13.418 -8.945,8.947 -13.417,19.701 -13.417,32.267 0,12.56 4.471,23.309 13.417,32.258 8.947,8.949 19.701,13.422 32.264,13.422 12.562,0 23.318,-4.473 32.264,-13.422 8.947,-8.943 13.418,-19.698 13.418,-32.258 z"
       id="path4" /><path
       style="opacity:0.3;fill:#000000;fill-opacity:1;fill-rule:nonzero"
       inkscape:connector-curvature="0"
       d="m 365.454,132.48 c 6.276,0 11.662,-2.24 16.129,-6.711 4.473,-4.475 6.714,-9.854 6.714,-16.134 0,-6.283 -2.241,-11.658 -6.714,-16.13 -4.47,-4.475 -9.853,-6.711 -16.129,-6.711 -6.283,0 -11.663,2.24 -16.136,6.711 -4.47,4.473 -6.707,9.847 -6.707,16.13 0,6.283 2.237,11.659 6.707,16.134 4.473,4.475 9.853,6.711 16.136,6.711 z"
       id="path6" /><path
       style="opacity:0.9"
       inkscape:connector-curvature="0"
       d="m 109.644,59.388 c -13.897,0 -25.745,4.902 -35.548,14.703 -9.804,9.801 -14.703,21.65 -14.703,35.544 0,13.899 4.899,25.743 14.703,35.548 9.806,9.804 21.654,14.705 35.548,14.705 13.894,0 25.743,-4.904 35.544,-14.705 9.801,-9.805 14.703,-21.652 14.703,-35.548 0,-13.894 -4.902,-25.743 -14.703,-35.544 -9.801,-9.801 -21.65,-14.703 -35.544,-14.703 z"
       id="path8" /><path
       style="opacity:0.4"
       inkscape:connector-curvature="0"
       d="m 439.684,218.125 c -5.328,-5.33 -11.799,-7.992 -19.41,-7.992 -7.618,0 -14.089,2.662 -19.417,7.992 -5.325,5.33 -7.987,11.803 -7.987,19.421 0,7.61 2.662,14.092 7.987,19.41 5.331,5.332 11.799,7.994 19.417,7.994 7.611,0 14.086,-2.662 19.41,-7.994 5.332,-5.324 7.991,-11.8 7.991,-19.41 0,-7.614 -2.655,-14.088 -7.991,-19.421 z"
       id="path10" /><path
       style="opacity:0.5"
       inkscape:connector-curvature="0"
       d="m 365.454,333.473 c -8.761,0 -16.279,3.138 -22.562,9.421 -6.276,6.276 -9.418,13.798 -9.418,22.559 0,8.754 3.142,16.276 9.418,22.56 6.283,6.282 13.802,9.417 22.562,9.417 8.754,0 16.272,-3.141 22.555,-9.417 6.283,-6.283 9.422,-13.802 9.422,-22.56 0,-8.761 -3.139,-16.275 -9.422,-22.559 -6.282,-6.284 -13.801,-9.421 -22.555,-9.421 z"
       id="path12" /><path
       style="opacity:0.6"
       inkscape:connector-curvature="0"
       d="m 237.547,383.717 c -10.088,0 -18.702,3.576 -25.844,10.715 -7.135,7.139 -10.705,15.748 -10.705,25.837 0,10.089 3.566,18.699 10.705,25.837 7.142,7.139 15.752,10.712 25.844,10.712 10.089,0 18.699,-3.573 25.838,-10.712 7.139,-7.138 10.708,-15.748 10.708,-25.837 0,-10.089 -3.569,-18.698 -10.708,-25.837 -7.139,-7.139 -15.749,-10.715 -25.838,-10.715 z"
       id="path14" /><path
       inkscape:connector-curvature="0"
       d="m 237.547,0 c -15.225,0 -28.174,5.327 -38.834,15.986 -10.657,10.66 -15.986,23.606 -15.986,38.832 0,15.227 5.327,28.167 15.986,38.828 10.66,10.657 23.606,15.987 38.834,15.987 15.232,0 28.172,-5.327 38.828,-15.987 C 287.031,82.99 292.36,70.045 292.36,54.818 292.36,39.593 287.031,26.65 276.375,15.986 265.719,5.33 252.779,0 237.547,0 Z"
       id="path16" /><g
       id="g22">
</g><g
       id="g24">
</g><g
       id="g26">
</g><g
       id="g28">
</g><g
       id="g30">
</g><g
       id="g32">
</g><g
       id="g34">
</g><g
       id="g36">
</g><g
       id="g38">
</g><g
       id="g40">
</g><g
       id="g42">
</g><g
       id="g44">
</g><g
       id="g46">
</g><g
       id="g48">
</g><g
       id="g50">
</g></g></g>
</svg>