<?xml version="1.0" encoding="UTF-8" standalone="no"?>
<!-- Created with Inkscape (http://www.inkscape.org/) -->

<svg
   xmlns:dc="http://purl.org/dc/elements/1.1/"
   xmlns:cc="http://creativecommons.org/ns#"
   xmlns:rdf="http://www.w3.org/1999/02/22-rdf-syntax-ns#"
   xmlns:svg="http://www.w3.org/2000/svg"
   xmlns="http://www.w3.org/2000/svg"
   xmlns:sodipodi="http://sodipodi.sourceforge.net/DTD/sodipodi-0.dtd"
   xmlns:inkscape="http://www.inkscape.org/namespaces/inkscape"
   width="60"
   height="60"
   viewBox="0 0 15.874999 15.875"
   version="1.1"
   id="svg865"
   inkscape:version="0.92.4 (5da689c313, 2019-01-14)"
   sodipodi:docname="mic.svg">
  <defs
     id="defs859" />
  <sodipodi:namedview
     id="base"
     pagecolor="#ffffff"
     bordercolor="#666666"
     borderopacity="1.0"
     inkscape:pageopacity="0.0"
     inkscape:pageshadow="2"
     inkscape:zoom="1.979899"
     inkscape:cx="-36.266517"
     inkscape:cy="9.8604667"
     inkscape:document-units="mm"
     inkscape:current-layer="layer1"
     showgrid="false"
     units="px"
     inkscape:window-width="1920"
     inkscape:window-height="1043"
     inkscape:window-x="0"
     inkscape:window-y="0"
     inkscape:window-maximized="1" />
  <metadata
     id="metadata862">
    <rdf:RDF>
      <cc:Work
         rdf:about="">
        <dc:format>image/svg+xml</dc:format>
        <dc:type
           rdf:resource="http://purl.org/dc/dcmitype/StillImage" />
        <dc:title></dc:title>
      </cc:Work>
    </rdf:RDF>
  </metadata>
  <g
     inkscape:label="Calque 1"
     inkscape:groupmode="layer"
     id="layer1"
     transform="translate(0,-281.12497)">
    <g
       id="g5144"
       transform="matrix(0.49713571,0,0,0.49713571,-1.833584,148.17777)">
      <g
         id="g5135">
        <g
           transform="matrix(0.26458333,0,0,0.26458333,-12.09615,251.64283)"
           id="g8">
          <g
             id="g6">
            <path
               inkscape:connector-curvature="0"
               class="st1"
               d="m 149,104.2 c -1.2,0 -2.2,1 -2.2,2.2 v 14 c 0,14.8 -12,26.8 -26.8,26.8 -14.8,0 -26.8,-12 -26.8,-26.8 v -14 c 0,-1.2 -1,-2.2 -2.2,-2.2 -1.2,0 -2.2,1 -2.2,2.2 v 14 c 0,16.5 12.8,30 29,31.2 v 11.6 h -11.6 c -1.2,0 -2.2,1 -2.2,2.2 0,1.2 1,2.2 2.2,2.2 h 27.6 c 1.2,0 2.2,-1 2.2,-2.2 0,-1.2 -1,-2.2 -2.2,-2.2 h -11.6 v -11.6 c 16.2,-1.1 29,-14.7 29,-31.2 v -14 c 0.1,-1.2 -0.9,-2.2 -2.2,-2.2 z"
               id="path4" />
          </g>
        </g>
        <g
           transform="matrix(0.26458333,0,0,0.26458333,-12.09615,251.64283)"
           id="g14">
          <g
             id="g12">
            <path
               inkscape:connector-curvature="0"
               class="st1"
               d="m 121.5,72.4 h -3 c -10.2,0 -18.5,8.3 -18.5,18.5 v 30.9 c 0,10.2 8.3,18.5 18.5,18.5 h 3 c 10.2,0 18.5,-8.3 18.5,-18.5 V 90.9 c 0,-10.2 -8.3,-18.5 -18.5,-18.5 z m 14,24.3 h -8.1 c -1.2,0 -2.2,1 -2.2,2.2 0,1.2 1,2.2 2.2,2.2 h 8.1 v 6.2 h -8.1 c -1.2,0 -2.2,1 -2.2,2.2 0,1.2 1,2.2 2.2,2.2 h 8.1 v 6.2 h -8.1 c -1.2,0 -2.2,1 -2.2,2.2 0,1.2 1,2.2 2.2,2.2 h 8.1 c -0.4,7.4 -6.5,13.3 -14,13.3 h -3 c -7.5,0 -13.6,-5.9 -14,-13.3 h 8.1 c 1.2,0 2.2,-1 2.2,-2.2 0,-1.2 -1,-2.2 -2.2,-2.2 h -8.1 v -6.2 h 8.1 c 1.2,0 2.2,-1 2.2,-2.2 0,-1.2 -1,-2.2 -2.2,-2.2 h -8.1 v -6.2 h 8.1 c 1.2,0 2.2,-1 2.2,-2.2 0,-1.2 -1,-2.2 -2.2,-2.2 h -8.1 v -5.8 c 0,-5.6 3.3,-10.4 8,-12.7 v 6.3 c 0,1.2 1,2.2 2.2,2.2 1.2,0 2.2,-1 2.2,-2.2 V 77 c 0.5,-0.1 5.7,-0.1 6.2,0 v 7.6 c 0,1.2 1,2.2 2.2,2.2 1.2,0 2.2,-1 2.2,-2.2 v -6.3 c 4.7,2.3 8,7.1 8,12.7 z"
               id="path10" />
          </g>
        </g>
      </g>
    </g>
  </g>
</svg>
