<?xml version="1.0" encoding="UTF-8" standalone="no"?>
<!-- Generator: Adobe Illustrator 19.0.0, SVG Export Plug-In . SVG Version: 6.00 Build 0)  -->

<svg
   xmlns:dc="http://purl.org/dc/elements/1.1/"
   xmlns:cc="http://creativecommons.org/ns#"
   xmlns:rdf="http://www.w3.org/1999/02/22-rdf-syntax-ns#"
   xmlns:svg="http://www.w3.org/2000/svg"
   xmlns="http://www.w3.org/2000/svg"
   xmlns:sodipodi="http://sodipodi.sourceforge.net/DTD/sodipodi-0.dtd"
   xmlns:inkscape="http://www.inkscape.org/namespaces/inkscape"
   version="1.1"
   id="Capa_1"
   x="0px"
   y="0px"
   viewBox="0 0 320.001 320.001"
   style="enable-background:new 0 0 320.001 320.001;"
   xml:space="preserve"
   sodipodi:docname="play.svg"
   inkscape:version="0.92.4 (5da689c313, 2019-01-14)"><metadata
   id="metadata39"><rdf:RDF><cc:Work
       rdf:about=""><dc:format>image/svg+xml</dc:format><dc:type
         rdf:resource="http://purl.org/dc/dcmitype/StillImage" /></cc:Work></rdf:RDF></metadata><defs
   id="defs37" /><sodipodi:namedview
   pagecolor="#ffffff"
   bordercolor="#666666"
   borderopacity="1"
   objecttolerance="10"
   gridtolerance="10"
   guidetolerance="10"
   inkscape:pageopacity="0"
   inkscape:pageshadow="2"
   inkscape:window-width="1920"
   inkscape:window-height="1043"
   id="namedview35"
   showgrid="false"
   inkscape:zoom="0.73749768"
   inkscape:cx="-113.89866"
   inkscape:cy="160.0005"
   inkscape:window-x="0"
   inkscape:window-y="0"
   inkscape:window-maximized="1"
   inkscape:current-layer="Capa_1" />
<path
   d="m 228.07123,165.96476 -109.43836,61.55908 c -2.12036,1.19015 -4.70584,1.16279 -6.79886,-0.0547 -2.10669,-1.23117 -3.39259,-3.47466 -3.39259,-5.90967 V 98.44129 c 0,-2.435 1.2859,-4.67849 3.39259,-5.90967 1.06702,-0.61559 2.25716,-0.93023 3.44731,-0.93023 1.1491,0 2.31189,0.28729 3.35155,0.87551 l 109.43836,61.55907 c 2.14774,1.21751 3.48835,3.48836 3.48835,5.96439 0,2.47605 -1.34061,4.74689 -3.48835,5.9644 z"
   id="path2"
   inkscape:connector-curvature="0"
   style="stroke-width:0.4274936" />
<g
   id="g4"
   transform="matrix(0.42749361,0,0,-0.42749361,48.254333,178.80182)">
</g>
<g
   id="g6"
   transform="matrix(0.42749361,0,0,-0.42749361,48.254333,178.80182)">
</g>
<g
   id="g8"
   transform="matrix(0.42749361,0,0,-0.42749361,48.254333,178.80182)">
</g>
<g
   id="g10"
   transform="matrix(0.42749361,0,0,-0.42749361,48.254333,178.80182)">
</g>
<g
   id="g12"
   transform="matrix(0.42749361,0,0,-0.42749361,48.254333,178.80182)">
</g>
<g
   id="g14"
   transform="matrix(0.42749361,0,0,-0.42749361,48.254333,178.80182)">
</g>
<g
   id="g16"
   transform="matrix(0.42749361,0,0,-0.42749361,48.254333,178.80182)">
</g>
<g
   id="g18"
   transform="matrix(0.42749361,0,0,-0.42749361,48.254333,178.80182)">
</g>
<g
   id="g20"
   transform="matrix(0.42749361,0,0,-0.42749361,48.254333,178.80182)">
</g>
<g
   id="g22"
   transform="matrix(0.42749361,0,0,-0.42749361,48.254333,178.80182)">
</g>
<g
   id="g24"
   transform="matrix(0.42749361,0,0,-0.42749361,48.254333,178.80182)">
</g>
<g
   id="g26"
   transform="matrix(0.42749361,0,0,-0.42749361,48.254333,178.80182)">
</g>
<g
   id="g28"
   transform="matrix(0.42749361,0,0,-0.42749361,48.254333,178.80182)">
</g>
<g
   id="g30"
   transform="matrix(0.42749361,0,0,-0.42749361,48.254333,178.80182)">
</g>
<g
   id="g32"
   transform="matrix(0.42749361,0,0,-0.42749361,48.254333,178.80182)">
</g>
</svg>